<?xml version="1.0" standalone="no"?><!DOCTYPE svg PUBLIC "-//W3C//DTD SVG 1.1//EN" "http://www.w3.org/Graphics/SVG/1.1/DTD/svg11.dtd"><svg t="1512795197761" class="icon" style="" viewBox="0 0 1024 1024" version="1.1" xmlns="http://www.w3.org/2000/svg" p-id="2426" xmlns:xlink="http://www.w3.org/1999/xlink" width="200" height="200"><defs><style type="text/css"></style></defs><path d="M945 764H673c-14 0-20.4 17.4-9.7 26.5l169.4 143.1c10.7 9 4.3 26.5-9.7 26.5h-43.5c-3.5 0-7-1.3-9.7-3.5L546.2 767.5c-2.7-2.3-6.1-3.5-9.7-3.5h-49c-3.5 0-7 1.3-9.7 3.5l-223.6 189c-2.7 2.3-6.1 3.5-9.7 3.5H201c-14 0-20.4-17.4-9.7-26.5l169.4-143.1c10.7-9 4.3-26.5-9.7-26.5H79c-8.3 0-15-6.7-15-15V139c0-8.3 6.7-15 15-15h388c8.3 0 15-6.7 15-15V79c0-8.3 6.7-15 15-15h30c8.3 0 15 6.7 15 15v30c0 8.3 6.7 15 15 15h388c8.3 0 15 6.7 15 15v610c0 8.3-6.7 15-15 15z m-45-75V199c0-8.3-6.7-15-15-15H139c-8.3 0-15 6.7-15 15v490c0 8.3 6.7 15 15 15h746c8.3 0 15-6.7 15-15z" fill="#409eff" p-id="2427"></path><path d="M501.7 594.8l-96-119.9c-11.7-14.6-33.8-15.1-46.1-0.9l-65.2 75.1c-10.9 12.5-29.8 13.9-42.3 3-12.5-10.9-13.9-29.8-3-42.3l112.4-129.5c12.3-14.1 34.4-13.7 46.1 0.9l65.3 81.6c15.5 19.4 46.5 12.6 52.5-11.5L561 308.7c5.9-23.6 35.9-30.7 51.8-12.4l181.5 209.6c10.8 12.5 9.5 31.5-3 42.3-12.5 10.8-31.5 9.5-42.3-3L643 422.9c-15.9-18.4-45.9-11.2-51.8 12.4l-37 148.1c-6 24-37 30.8-52.5 11.4z" fill="#409eff" p-id="2428"></path></svg>